<svg width="67" height="15" viewBox="0 0 67 15" fill="none" xmlns="http://www.w3.org/2000/svg">
<path fill-rule="evenodd" clip-rule="evenodd" d="M0 0H4.56359L4.57369 5.39176L4.64638 5.29594C4.68677 5.24404 4.77764 5.13824 4.84831 5.06238C4.91899 4.98653 5.05024 4.86676 5.13909 4.79689C5.22794 4.72502 5.38746 4.61723 5.49247 4.55535C5.59747 4.49346 5.77113 4.40763 5.87613 4.36571C5.98113 4.32379 6.14873 4.26789 6.2497 4.24194C6.35066 4.214 6.51826 4.18006 6.62327 4.16209C6.72827 4.14612 6.96049 4.12616 7.13819 4.11818C7.33608 4.11219 7.56628 4.11618 7.73388 4.13015C7.8833 4.14413 8.11754 4.17607 8.25485 4.20401C8.39014 4.22997 8.60419 4.28386 8.72737 4.32379C8.85256 4.36371 9.04641 4.43757 9.15747 4.48947C9.26854 4.54137 9.44018 4.6352 9.54114 4.69907C9.6421 4.76295 9.78144 4.86276 9.85413 4.92065C9.92682 4.97655 10.052 5.09033 10.1348 5.17218C10.2156 5.25402 10.3388 5.39176 10.4094 5.47959C10.4781 5.56742 10.5791 5.70716 10.6316 5.789C10.6861 5.87085 10.781 6.04252 10.8436 6.16828C10.9082 6.29404 10.991 6.4777 11.0314 6.57751C11.0697 6.67732 11.1344 6.86496 11.1727 6.99671C11.2111 7.12846 11.2656 7.34405 11.2939 7.4758C11.3222 7.60755 11.3585 7.81316 11.3767 7.93493C11.3928 8.0567 11.4171 8.25232 11.4272 8.37409C11.4393 8.49586 11.4534 8.75138 11.4615 8.94301C11.4696 9.14463 11.4635 9.45205 11.4514 9.67163C11.4373 9.87923 11.413 10.1547 11.3969 10.2805C11.3807 10.4062 11.3484 10.6039 11.3262 10.7196C11.304 10.8354 11.2575 11.033 11.2232 11.1588C11.1909 11.2846 11.1182 11.5101 11.0617 11.6579C11.0051 11.8056 10.9082 12.0311 10.8416 12.1569C10.7769 12.2827 10.6719 12.4623 10.6093 12.5561C10.5447 12.65 10.4458 12.7837 10.3872 12.8556C10.3307 12.9274 10.2297 13.0392 10.1631 13.1051C10.0985 13.171 9.9874 13.2748 9.91471 13.3367C9.84201 13.3985 9.70672 13.5004 9.61181 13.5642C9.51691 13.6261 9.33113 13.7299 9.19786 13.7958C9.06459 13.8597 8.86872 13.9395 8.76371 13.9735C8.65871 14.0074 8.49515 14.0533 8.40024 14.0733C8.30534 14.0932 8.12158 14.1252 7.99033 14.1411C7.85301 14.1591 7.60464 14.1731 7.39665 14.1731C7.19876 14.1731 6.96049 14.1651 6.86558 14.1531C6.77068 14.1431 6.63538 14.1232 6.56269 14.1112C6.48999 14.0992 6.35874 14.0713 6.26989 14.0493C6.18104 14.0294 6.072 13.9994 6.02758 13.9834C5.98315 13.9695 5.89632 13.9375 5.83574 13.9136C5.77517 13.8896 5.65199 13.8337 5.56314 13.7898C5.47429 13.7459 5.34304 13.67 5.27034 13.6221C5.19765 13.5742 5.06034 13.4644 4.96543 13.3806C4.87052 13.2947 4.72715 13.143 4.6484 13.0452C4.56763 12.9474 4.47878 12.8256 4.44647 12.7757C4.41618 12.7258 4.36368 12.638 4.2708 12.4703L4.2506 14.0433L0 14.0533L0 0ZM5.05832 7.13644C5.00178 7.16838 4.91899 7.23625 4.87052 7.28616C4.82408 7.33606 4.74937 7.44386 4.70494 7.5257C4.66254 7.60755 4.60398 7.76126 4.57571 7.86506C4.54744 7.96886 4.50705 8.1585 4.48888 8.28426C4.46061 8.46392 4.45455 8.64757 4.45455 9.12267C4.45455 9.61174 4.46061 9.77942 4.4909 9.97106C4.51109 10.1028 4.54946 10.2865 4.57571 10.3803C4.60398 10.4741 4.65648 10.6138 4.69283 10.6897C4.73119 10.7656 4.80591 10.8793 4.86245 10.9392C4.91697 10.9991 5.00986 11.075 5.07043 11.1069C5.13101 11.1388 5.2239 11.1768 5.28044 11.1927C5.33496 11.2067 5.46622 11.2187 5.56718 11.2187C5.69238 11.2187 5.79536 11.2067 5.87007 11.1828C5.93469 11.1628 6.02758 11.1249 6.07806 11.0949C6.12854 11.067 6.21335 10.9951 6.26787 10.9372C6.32239 10.8753 6.40316 10.7516 6.45365 10.6498C6.50009 10.552 6.55865 10.3943 6.58288 10.3004C6.60711 10.2066 6.63942 10.0409 6.65558 9.93114C6.67173 9.82134 6.69192 9.53788 6.69798 9.30233C6.70404 9.04083 6.7 8.75936 6.68587 8.5837C6.67375 8.424 6.64144 8.19044 6.61519 8.06468C6.58894 7.93892 6.5425 7.77124 6.51221 7.69538C6.48192 7.61953 6.4173 7.49776 6.37288 7.42589C6.32643 7.35403 6.24768 7.2642 6.1972 7.22428C6.14873 7.18435 6.06998 7.13245 6.02152 7.1085C5.97508 7.08654 5.88017 7.0526 5.80949 7.03663C5.74084 7.02066 5.62574 7.00669 5.55304 7.00869C5.48035 7.00869 5.36323 7.02466 5.29054 7.04262C5.21784 7.06059 5.11284 7.10251 5.05832 7.13644ZM29.9925 0.620821C30.0006 0.618825 30.0066 1.41731 30.0066 4.17208H32.1269V7.00669H30.0066V8.34814C30.0066 9.14064 30.0147 9.77743 30.0268 9.90119C30.0389 10.017 30.0672 10.1847 30.0874 10.2745C30.1096 10.3663 30.154 10.4941 30.1884 10.5599C30.2227 10.6258 30.2833 10.7156 30.3257 10.7616C30.3661 10.8055 30.4367 10.8634 30.4812 10.8893C30.5256 10.9133 30.6124 10.9512 30.673 10.9712C30.7659 11.0031 30.8426 11.0091 31.1374 11.0071C31.4141 11.0071 31.5433 10.9971 31.7331 10.9612C31.8664 10.9372 31.9956 10.9133 32.0663 10.8993V13.674L31.8401 13.7339C31.715 13.7659 31.5534 13.8058 31.4807 13.8217C31.408 13.8377 31.2263 13.8736 31.0769 13.9016C30.9274 13.9295 30.6952 13.9655 30.5619 13.9814C30.4287 13.9974 30.2106 14.0214 30.0773 14.0313C29.944 14.0433 29.631 14.0593 29.3807 14.0653C29.0838 14.0733 28.8233 14.0693 28.6335 14.0553C28.472 14.0413 28.2458 14.0134 28.1287 13.9934C28.0116 13.9715 27.8258 13.9295 27.7147 13.8976C27.6037 13.8657 27.432 13.8058 27.3311 13.7659C27.2301 13.7259 27.0766 13.6541 26.9878 13.6062C26.8989 13.5582 26.7536 13.4644 26.6647 13.4005C26.5759 13.3347 26.4325 13.2109 26.3457 13.1231C26.2588 13.0372 26.1316 12.8835 26.065 12.7857C25.9983 12.6879 25.9115 12.5422 25.8711 12.4663C25.8328 12.3905 25.7702 12.2507 25.7338 12.1569C25.6975 12.0631 25.645 11.8934 25.6147 11.7776C25.5864 11.6618 25.544 11.4562 25.5238 11.3185C25.5016 11.1808 25.4753 10.9332 25.4653 10.7695C25.4531 10.6039 25.439 10.3344 25.435 10.1707C25.4289 10.005 25.4228 9.22647 25.4228 7.00669H23.8074V4.17208H25.4228V2.03613L25.5299 2.00619C25.5864 1.99022 26.6122 1.67083 27.8056 1.29953C28.999 0.926241 29.9824 0.620821 29.9925 0.620821ZM18.0121 3.92455C18.2847 3.92854 18.6118 3.94052 18.739 3.95249C18.8662 3.96447 19.0883 3.99242 19.2337 4.01238C19.3791 4.03234 19.5831 4.06827 19.6881 4.09223C19.7931 4.11418 19.9748 4.16209 20.0919 4.19603C20.209 4.22997 20.3928 4.29185 20.4998 4.33377C20.6089 4.37768 20.7704 4.44755 20.8593 4.49147C20.9481 4.53539 21.0814 4.60924 21.1561 4.65316C21.2328 4.69907 21.3621 4.78691 21.4448 4.84879C21.5276 4.91067 21.667 5.02845 21.7558 5.11029C21.8426 5.19214 21.98 5.33986 22.0607 5.43967C22.1415 5.53748 22.2526 5.69119 22.3091 5.77902C22.3636 5.86686 22.4525 6.02456 22.505 6.12836C22.5575 6.23216 22.6342 6.40384 22.6766 6.50764C22.717 6.61144 22.7796 6.7911 22.8139 6.90688C22.8483 7.02266 22.8947 7.20032 22.9189 7.30013C22.9411 7.40194 22.9775 7.59557 22.9997 7.72932C23.0219 7.86506 23.0542 8.1046 23.0724 8.2643C23.0906 8.43398 23.1087 8.85718 23.131 10.021H16.8005L16.8126 10.0948C16.8187 10.1367 16.8368 10.2206 16.851 10.2805C16.8651 10.3404 16.8994 10.4442 16.9237 10.51C16.9499 10.5759 17.0125 10.6937 17.065 10.7695C17.1175 10.8454 17.2023 10.9472 17.2528 10.9931C17.3033 11.041 17.4063 11.1189 17.481 11.1668C17.5577 11.2147 17.6829 11.2826 17.7596 11.3165C17.8364 11.3484 17.9878 11.3983 18.0928 11.4263C18.1978 11.4542 18.3856 11.4922 18.5068 11.5121C18.6764 11.5381 18.8581 11.5461 19.2842 11.5461C19.5972 11.5461 19.9405 11.5361 20.0717 11.5221C20.1989 11.5081 20.3989 11.4842 20.516 11.4662C20.6331 11.4503 20.8007 11.4223 20.8895 11.4063C20.9784 11.3904 21.1521 11.3524 21.2732 11.3245C21.3944 11.2965 21.6185 11.2406 21.7679 11.1987C21.9174 11.1548 22.1435 11.0849 22.2667 11.041C22.3919 10.9951 22.505 10.9592 22.5151 10.9592C22.5292 10.9592 22.5332 11.3764 22.5252 13.4045L22.4646 13.4325C22.4303 13.4485 22.2768 13.5043 22.1213 13.5543C21.9658 13.6062 21.6892 13.686 21.5054 13.7299C21.3217 13.7758 21.045 13.8357 20.8895 13.8637C20.7341 13.8916 20.4352 13.9375 20.2232 13.9635C20.0112 13.9894 19.6941 14.0234 19.5164 14.0373C19.3226 14.0533 18.8743 14.0633 18.3957 14.0633C17.7637 14.0633 17.5294 14.0553 17.2649 14.0274C17.0812 14.0074 16.8025 13.9695 16.643 13.9415C16.4855 13.9156 16.2169 13.8577 16.0473 13.8158C15.8797 13.7718 15.6273 13.696 15.4879 13.6481C15.3486 13.6002 15.1406 13.5163 15.0235 13.4644C14.9064 13.4125 14.7388 13.3287 14.6499 13.2788C14.5611 13.2289 14.4076 13.135 14.3067 13.0692C14.2057 13.0033 14.0522 12.8895 13.9634 12.8177C13.8745 12.7458 13.7291 12.614 13.6423 12.5262C13.5535 12.4384 13.4283 12.2986 13.3616 12.2168C13.295 12.1349 13.186 11.9852 13.1193 11.8874C13.0527 11.7896 12.9356 11.582 12.8609 11.4283C12.7841 11.2746 12.6771 11.0131 12.6226 10.8494C12.5681 10.6837 12.4994 10.4382 12.4711 10.3004C12.4429 10.1627 12.4045 9.92914 12.3843 9.78142C12.3601 9.58978 12.352 9.36022 12.352 8.98294C12.35 8.59767 12.3601 8.38407 12.3863 8.19443C12.4045 8.05071 12.4388 7.8451 12.461 7.73531C12.4832 7.62551 12.5297 7.43787 12.562 7.3161C12.5963 7.19433 12.665 6.99272 12.7155 6.86696C12.7659 6.7412 12.8447 6.56553 12.8891 6.4777C12.9335 6.38986 13.0103 6.25013 13.0608 6.16828C13.1112 6.08644 13.2263 5.91876 13.3172 5.79898C13.4101 5.67722 13.5838 5.48358 13.7029 5.36581C13.824 5.24803 13.9816 5.1043 14.0542 5.04841C14.1269 4.99052 14.2804 4.88073 14.3975 4.80487C14.5146 4.72902 14.7327 4.60725 14.8822 4.53339C15.0316 4.45953 15.2598 4.36171 15.387 4.3158C15.5142 4.26989 15.7141 4.20401 15.8312 4.17208C15.9483 4.13814 16.1846 4.08424 16.3562 4.0523C16.5279 4.02036 16.75 3.98443 16.851 3.97245C16.9519 3.96048 17.1417 3.94251 17.275 3.93453C17.4083 3.92455 17.7395 3.92055 18.0121 3.92455ZM17.5678 6.21819C17.5173 6.23416 17.4224 6.28207 17.3558 6.32399C17.2892 6.36591 17.1963 6.44376 17.1478 6.49965C17.1014 6.55355 17.0246 6.66933 16.9802 6.75716C16.9378 6.845 16.8792 7.0027 16.853 7.1065C16.8267 7.2103 16.7944 7.39396 16.7823 7.51572C16.7702 7.63749 16.7601 7.82713 16.7601 7.93892V8.14453H19.1429C19.1429 7.81116 19.1328 7.61753 19.1206 7.49576C19.1085 7.37399 19.0782 7.19433 19.052 7.09652C19.0278 6.99671 18.9712 6.84699 18.9288 6.75916C18.8804 6.66534 18.8016 6.55156 18.7289 6.4737C18.6401 6.37988 18.5653 6.32399 18.4563 6.26809C18.3675 6.22418 18.2584 6.18825 18.1938 6.18026C18.1332 6.17228 18.0464 6.16429 18.002 6.16229C17.9575 6.1583 17.8626 6.16229 17.7899 6.17228C17.7172 6.18026 17.6183 6.20022 17.5678 6.21819Z" fill="#505050"/>
<path fill-rule="evenodd" clip-rule="evenodd" d="M37.8112 0.668757C38.4089 0.672749 38.6916 0.68273 38.9016 0.708681C39.0571 0.726647 39.3156 0.762579 39.4771 0.790526C39.6386 0.816476 39.883 0.866381 40.0223 0.900317C40.1616 0.934253 40.3918 1.00212 40.5372 1.04804C40.6826 1.09595 40.9047 1.18178 41.0319 1.23768C41.1592 1.29357 41.347 1.3834 41.4459 1.43929C41.5448 1.49718 41.7104 1.59899 41.8094 1.66686C41.9083 1.73473 42.0719 1.86249 42.1728 1.94833C42.2718 2.03616 42.4111 2.1739 42.4818 2.25574C42.5525 2.33759 42.6635 2.48131 42.7281 2.57514C42.7907 2.66896 42.8857 2.82466 42.9361 2.92447C42.9846 3.02428 43.0593 3.19396 43.0977 3.30375C43.136 3.41354 43.1865 3.58921 43.2087 3.69301C43.233 3.79681 43.2612 3.98246 43.2754 4.10223C43.2895 4.23199 43.2935 4.4356 43.2875 4.60129C43.2794 4.75699 43.2572 4.9646 43.235 5.0704C43.2128 5.1742 43.1663 5.33988 43.132 5.43969C43.0957 5.5395 43.027 5.69521 42.9785 5.78903C42.9281 5.88285 42.8412 6.02259 42.7847 6.09844C42.7281 6.1743 42.5989 6.32002 42.4979 6.41784C42.3909 6.52364 42.2213 6.65938 42.0921 6.74521C41.9689 6.82506 41.8013 6.92487 41.7185 6.96679C41.6357 7.00672 41.4843 7.07259 41.3853 7.11252C41.2864 7.15044 41.1168 7.20634 41.0118 7.23429C40.9067 7.26423 40.8058 7.29218 40.7896 7.29816C40.7735 7.30415 40.8583 7.3341 40.9815 7.36404C41.1046 7.39598 41.2904 7.44988 41.3954 7.48581C41.5004 7.51974 41.7003 7.60358 41.8397 7.66946C41.979 7.73334 42.1829 7.84712 42.294 7.92098C42.4131 7.99883 42.5787 8.13458 42.6999 8.25435C42.8109 8.36414 42.9483 8.52184 43.0048 8.60368C43.0613 8.68553 43.1421 8.82526 43.1865 8.9131C43.231 9.00093 43.2915 9.14066 43.3198 9.22251C43.3481 9.30435 43.3905 9.46205 43.4147 9.57185C43.443 9.7036 43.4612 9.88325 43.4692 10.1008C43.4773 10.3084 43.4712 10.5081 43.4571 10.6398C43.443 10.7556 43.4127 10.9353 43.3905 11.0391C43.3683 11.1429 43.3178 11.3185 43.2794 11.4283C43.241 11.5381 43.1724 11.6978 43.13 11.7836C43.0876 11.8675 43.0129 11.9972 42.9644 12.0731C42.9159 12.147 42.8089 12.2887 42.7261 12.3865C42.6433 12.4843 42.4939 12.636 42.395 12.7239C42.294 12.8097 42.1304 12.9375 42.0315 13.0053C41.9325 13.0732 41.7771 13.171 41.6882 13.2189C41.5994 13.2688 41.4277 13.3547 41.3045 13.4086C41.1814 13.4645 40.9653 13.5483 40.8199 13.5982C40.6745 13.6481 40.4302 13.722 40.2747 13.7599C40.1192 13.7998 39.8688 13.8537 39.7194 13.8817C39.57 13.9096 39.3418 13.9455 39.2146 13.9615C39.0874 13.9775 38.8733 14.0014 38.7401 14.0134C38.6068 14.0254 38.3483 14.0434 38.1646 14.0513C37.9808 14.0613 37.6032 14.0653 37.3266 14.0613C37.0479 14.0573 36.64 14.0414 36.4179 14.0234C36.1957 14.0074 35.8646 13.9755 35.6808 13.9515C35.4971 13.9296 35.2103 13.8896 35.0448 13.8637C34.8772 13.8377 34.6187 13.7918 34.4693 13.7639C34.3198 13.7339 34.0573 13.68 33.8877 13.6421C33.7201 13.6042 33.5767 13.5742 33.5707 13.5742C33.5646 13.5742 33.5606 12.9015 33.5606 12.0771C33.5606 10.7596 33.5646 10.5799 33.5909 10.5799C33.607 10.5799 33.714 10.6059 33.8271 10.6378C33.9422 10.6718 34.2128 10.7416 34.4289 10.7975C34.6449 10.8534 34.9781 10.9293 35.1659 10.9672C35.3537 11.0051 35.6324 11.055 35.7818 11.077C35.9312 11.0989 36.1634 11.1269 36.2967 11.1409C36.43 11.1528 36.7208 11.1648 36.9429 11.1648C37.165 11.1668 37.4194 11.1548 37.5083 11.1429C37.5971 11.1289 37.7466 11.1009 37.8415 11.077C37.9364 11.055 38.0999 10.9951 38.2049 10.9432C38.3463 10.8754 38.4291 10.8195 38.5179 10.7296C38.5926 10.6558 38.6633 10.56 38.7017 10.4801C38.736 10.4083 38.7744 10.3104 38.7865 10.2605C38.7986 10.2106 38.8148 10.1028 38.8208 10.021C38.8289 9.92118 38.8228 9.81538 38.8027 9.7016C38.7845 9.60578 38.7441 9.47603 38.7077 9.40217C38.6653 9.31833 38.5926 9.22251 38.4998 9.13068C38.3867 9.02089 38.314 8.96899 38.1646 8.89513C38.0596 8.84523 37.8859 8.78135 37.7809 8.7554C37.6759 8.72945 37.5063 8.69751 37.4073 8.68553C37.3084 8.67355 37.0358 8.66357 36.8015 8.66357C36.5673 8.66357 36.2503 8.67355 36.0948 8.68553C35.9393 8.69751 35.6748 8.72346 35.5092 8.74342C35.3416 8.76338 35.2002 8.77735 35.1901 8.77137C35.1821 8.76737 35.176 8.13657 35.176 5.97867L35.3618 5.99664C35.4648 6.00462 35.6445 6.02059 35.7616 6.02858C35.8787 6.03856 36.2604 6.04255 36.6097 6.04055C37.1145 6.03656 37.2862 6.02658 37.4376 6.00063C37.5426 5.98067 37.7122 5.93875 37.8112 5.90681C37.9101 5.87487 38.0515 5.81698 38.1222 5.77506C38.1948 5.73314 38.2998 5.65329 38.3544 5.59939C38.4109 5.5435 38.4856 5.44568 38.522 5.37981C38.5563 5.31393 38.6007 5.20215 38.6169 5.13028C38.635 5.05642 38.6492 4.9107 38.6492 4.79093C38.6492 4.67115 38.635 4.52543 38.6169 4.45157C38.6007 4.37971 38.5583 4.26792 38.522 4.20205C38.4876 4.13617 38.4028 4.02838 38.3362 3.9625C38.2554 3.88465 38.1605 3.81678 38.0636 3.77086C37.9808 3.73094 37.8536 3.67904 37.7809 3.65708C37.7082 3.63512 37.5446 3.60119 37.4174 3.58122C37.2539 3.55727 37.0701 3.54729 36.7914 3.54729C36.5511 3.54729 36.2987 3.56126 36.1453 3.57923C36.0059 3.59719 35.7656 3.63512 35.6102 3.66307C35.4547 3.69102 35.1861 3.74691 35.0145 3.78683C34.8428 3.82476 34.5278 3.90461 34.3178 3.9645C34.1078 4.02239 33.8776 4.08826 33.6817 4.15214V1.21771L33.8877 1.15583C34.0028 1.12389 34.1219 1.08796 34.1563 1.07798C34.1906 1.066 34.3259 1.03207 34.4592 1.00013C34.5924 0.968188 34.8186 0.918283 34.964 0.890336C35.1094 0.864385 35.3537 0.822465 35.5092 0.800507C35.6647 0.778548 35.9373 0.746609 36.115 0.728643C36.2927 0.712673 36.5653 0.690715 36.7208 0.680734C36.8762 0.670753 37.3669 0.664764 37.8112 0.668757ZM51.7544 0.664764C52.0593 0.664764 52.4328 0.670753 52.5823 0.680734C52.7317 0.688719 53.0043 0.710677 53.1881 0.728643C53.3718 0.746609 53.6989 0.786533 53.915 0.818472C54.1311 0.848416 54.4663 0.904309 55.0054 1.00811V2.47133C55.0054 3.43151 54.9994 3.93256 54.9852 3.93256C54.9731 3.93256 54.858 3.90261 54.7268 3.86469C54.5975 3.82676 54.3411 3.76488 54.1573 3.72495C53.9736 3.68702 53.7111 3.63712 53.5717 3.61316C53.4324 3.59121 53.1961 3.56126 53.0467 3.54529C52.8973 3.52932 52.6913 3.50936 52.5924 3.50337C52.4934 3.49539 52.2027 3.4894 51.9462 3.4894C51.6898 3.4894 51.3869 3.49938 51.2697 3.51335C51.1526 3.52533 50.9628 3.55328 50.8457 3.57723C50.7286 3.59919 50.5468 3.64311 50.4418 3.67704C50.3368 3.71098 50.1733 3.77486 50.0784 3.82077C49.9835 3.86668 49.8522 3.94054 49.7856 3.98246C49.7189 4.02638 49.5897 4.13417 49.5008 4.22201C49.41 4.30984 49.2929 4.44957 49.2383 4.53142C49.1858 4.61326 49.1071 4.753 49.0667 4.84083C49.0243 4.92867 48.9678 5.08038 48.9375 5.18019C48.9092 5.28 48.8688 5.45966 48.8466 5.57943C48.8264 5.6992 48.8022 5.89283 48.7941 6.00861C48.78 6.18827 48.782 6.21622 48.8082 6.19825C48.8244 6.18628 48.9132 6.12639 49.0081 6.06451C49.103 6.00262 49.2848 5.90281 49.412 5.84293C49.5392 5.78304 49.7129 5.70918 49.7957 5.68124C49.8785 5.65528 50.038 5.60937 50.149 5.58143C50.2601 5.55348 50.4459 5.51755 50.563 5.49958C50.6801 5.48161 50.8881 5.45966 51.0274 5.45167C51.1668 5.44169 51.4616 5.4357 51.6837 5.43969C51.9078 5.44369 52.1946 5.45966 52.3299 5.47762C52.4631 5.49559 52.6772 5.53352 52.8044 5.56146C52.9316 5.58941 53.1234 5.64131 53.2285 5.67325C53.3335 5.70719 53.4889 5.76108 53.5717 5.79302C53.6545 5.82496 53.8181 5.89882 53.9352 5.95671C54.0523 6.0146 54.2017 6.09645 54.2684 6.13837C54.335 6.18029 54.4764 6.2781 54.5814 6.35595C54.6864 6.43181 54.856 6.57753 54.9549 6.67535C55.0559 6.77516 55.1973 6.93286 55.272 7.02668C55.3447 7.1205 55.4497 7.26822 55.5042 7.35605C55.5607 7.44389 55.6375 7.57963 55.6758 7.65549C55.7162 7.73134 55.7808 7.88106 55.8232 7.98486C55.8656 8.08866 55.9282 8.29028 55.9646 8.43401C56.003 8.57773 56.0474 8.80131 56.0676 8.93306C56.0918 9.09874 56.1019 9.29437 56.1019 9.57185C56.1019 9.83535 56.0918 10.0489 56.0696 10.2007C56.0494 10.3264 56.007 10.542 55.9727 10.6797C55.9404 10.8175 55.8798 11.0151 55.8394 11.1189C55.801 11.2227 55.7223 11.4024 55.6657 11.5181C55.6092 11.6339 55.5022 11.8176 55.4295 11.9274C55.3548 12.0372 55.2477 12.1849 55.1872 12.2567C55.1286 12.3286 55.0115 12.4564 54.9267 12.5422C54.8419 12.628 54.7045 12.7558 54.6218 12.8237C54.539 12.8935 54.4057 12.9933 54.329 13.0472C54.2522 13.1031 54.1109 13.193 54.016 13.2489C53.9211 13.3048 53.7797 13.3826 53.703 13.4205C53.6262 13.4585 53.4788 13.5243 53.3799 13.5643C53.281 13.6062 53.1214 13.6661 53.0265 13.698C52.9316 13.7299 52.76 13.7818 52.6429 13.8138C52.5257 13.8437 52.3137 13.8936 52.1683 13.9196C52.0229 13.9475 51.823 13.9795 51.7241 13.9914C51.6251 14.0034 51.4151 14.0234 51.2596 14.0334C51.1042 14.0434 50.8538 14.0533 50.7043 14.0533C50.5549 14.0533 50.3045 14.0434 50.149 14.0334C49.9935 14.0214 49.7613 13.9994 49.6341 13.9815C49.5069 13.9655 49.307 13.9336 49.1899 13.9116C49.0728 13.8896 48.8728 13.8457 48.7456 13.8138C48.6184 13.7818 48.3963 13.716 48.2509 13.6661C48.1055 13.6182 47.9117 13.5443 47.8168 13.5044C47.7218 13.4645 47.5401 13.3786 47.4129 13.3127C47.2857 13.2469 47.0535 13.1091 46.898 13.0053C46.7425 12.9035 46.5426 12.7598 46.4537 12.6859C46.3649 12.6121 46.2296 12.4923 46.1529 12.4204C46.0761 12.3466 45.959 12.2288 45.8924 12.1569C45.8257 12.0851 45.6945 11.9234 45.5976 11.7976C45.5006 11.6719 45.3714 11.4842 45.3068 11.3844C45.2442 11.2826 45.1331 11.083 45.0604 10.9392C44.9877 10.7955 44.8948 10.5919 44.8504 10.4861C44.808 10.3783 44.7394 10.1867 44.697 10.0609C44.6566 9.93515 44.596 9.72356 44.5657 9.59181C44.5334 9.46006 44.489 9.24447 44.4647 9.11272C44.4425 8.98097 44.4082 8.73943 44.39 8.57374C44.3658 8.36214 44.3557 8.10064 44.3557 7.67545C44.3557 7.34208 44.3678 6.95681 44.3819 6.8071C44.3961 6.65938 44.4244 6.41584 44.4466 6.26812C44.4668 6.1204 44.4991 5.92677 44.5172 5.83894C44.5354 5.7511 44.5758 5.57144 44.6081 5.43969C44.6424 5.30794 44.6929 5.12429 44.7212 5.03047C44.7495 4.93665 44.8262 4.72705 44.8908 4.56136C44.9554 4.39767 45.0665 4.15014 45.1372 4.01241C45.2078 3.87467 45.3229 3.67105 45.3956 3.55727C45.4663 3.44548 45.5895 3.26782 45.6662 3.16402C45.7429 3.06221 45.8843 2.89054 45.9792 2.78474C46.0741 2.67894 46.2457 2.50527 46.3629 2.40147C46.48 2.29766 46.6738 2.13797 46.797 2.04614C46.9202 1.95431 47.1181 1.82057 47.2413 1.74671C47.3644 1.67285 47.5724 1.55907 47.7057 1.49319C47.839 1.42732 48.0571 1.32751 48.1903 1.27361C48.3236 1.21971 48.5457 1.13986 48.6851 1.09595C48.8244 1.05003 49.0364 0.990146 49.1596 0.958207C49.2828 0.926268 49.4948 0.878359 49.6341 0.852408C49.7734 0.824461 50.0178 0.782541 50.1793 0.760582C50.3409 0.738624 50.5993 0.710677 50.7548 0.6987C50.9103 0.686723 51.0739 0.674745 51.1183 0.672749C51.1627 0.668757 51.4495 0.664764 51.7544 0.664764V0.664764ZM49.725 7.89902C49.6301 7.94893 49.5311 8.02478 49.4221 8.13258C49.309 8.24437 49.2363 8.34019 49.1818 8.44399C49.1374 8.52583 49.0829 8.65159 49.0586 8.72346C49.0324 8.79532 48.998 8.94703 48.9778 9.06281C48.9496 9.2265 48.9435 9.33829 48.9536 9.57185C48.9617 9.80141 48.9758 9.91519 49.0142 10.0609C49.0425 10.1647 49.0869 10.3005 49.1131 10.3603C49.1394 10.4202 49.1979 10.524 49.2424 10.5899C49.2848 10.6558 49.3716 10.7576 49.4362 10.8195C49.4988 10.8794 49.5978 10.9592 49.6583 10.9931C49.7169 11.0291 49.83 11.081 49.9067 11.1069C49.9835 11.1349 50.1309 11.1668 50.2298 11.1788C50.3611 11.1948 50.462 11.1968 50.5973 11.1808C50.7003 11.1688 50.8517 11.1349 50.9305 11.1049C51.0113 11.077 51.1284 11.0231 51.189 10.9892C51.2495 10.9532 51.3525 10.8714 51.4192 10.8075C51.4838 10.7416 51.5726 10.6358 51.615 10.5699C51.6595 10.5041 51.7221 10.3803 51.7544 10.2965C51.7887 10.2106 51.8311 10.0809 51.8493 10.007C51.8775 9.89922 51.8856 9.78744 51.8836 9.47204C51.8836 9.10873 51.8775 9.05483 51.8311 8.88315C51.8028 8.77935 51.7463 8.62564 51.7039 8.5438C51.6635 8.46195 51.6009 8.35416 51.5666 8.30425C51.5302 8.25435 51.4515 8.16452 51.3889 8.10463C51.3263 8.04475 51.2031 7.95691 51.1163 7.911C51.0274 7.86509 50.8841 7.80919 50.7952 7.78524C50.6761 7.7553 50.5731 7.74532 50.4014 7.74532C50.2379 7.74731 50.1248 7.75929 50.0178 7.78723C49.935 7.80919 49.8017 7.8591 49.725 7.89902ZM57.4488 0.978169H66.475V4.05233H61.6893V5.95871L61.9578 5.94274C62.1032 5.93276 62.4203 5.93076 62.6585 5.93675C62.8968 5.94074 63.2058 5.9607 63.3451 5.97867C63.4844 5.99464 63.7065 6.03257 63.8398 6.05852C63.9731 6.08447 64.1912 6.14036 64.3244 6.18029C64.4577 6.22021 64.6617 6.29208 64.7788 6.34198C64.8959 6.39189 65.0817 6.48172 65.1927 6.5436C65.3038 6.60548 65.4815 6.72126 65.5865 6.79911C65.6915 6.87896 65.849 7.01271 65.9379 7.09854C66.0247 7.18638 66.1519 7.32811 66.2226 7.41594C66.2912 7.50377 66.3983 7.65748 66.4568 7.7553C66.5174 7.85311 66.6103 8.03277 66.6608 8.15454C66.7133 8.27631 66.7839 8.46794 66.8183 8.58372C66.8526 8.6995 66.897 8.89114 66.9192 9.01291C66.9414 9.13468 66.9677 9.3303 66.9798 9.45207C66.9899 9.57384 67 9.78344 67 9.92118C67 10.0589 66.9919 10.2645 66.9798 10.3803C66.9677 10.4961 66.9455 10.6658 66.9273 10.7596C66.9112 10.8534 66.8687 11.0231 66.8364 11.1389C66.8021 11.2546 66.7355 11.4423 66.685 11.5581C66.6365 11.6739 66.5497 11.8435 66.4932 11.9374C66.4366 12.0312 66.3377 12.1749 66.2771 12.2567C66.2145 12.3386 66.0913 12.4823 66.0005 12.5741C65.9116 12.666 65.7662 12.7977 65.6774 12.8696C65.5885 12.9394 65.4431 13.0452 65.3543 13.1051C65.2654 13.163 65.0978 13.2608 64.9807 13.3207C64.8636 13.3826 64.6697 13.4724 64.5466 13.5203C64.4234 13.5703 64.2255 13.6421 64.1023 13.682C63.9791 13.72 63.7712 13.7799 63.6379 13.8118C63.5046 13.8457 63.2684 13.8936 63.1129 13.9216C62.9574 13.9475 62.6929 13.9835 62.5273 14.0014C62.3597 14.0194 62.1073 14.0434 61.9619 14.0533C61.8165 14.0633 61.4086 14.0673 61.0532 14.0633C60.6877 14.0593 60.2536 14.0434 60.0536 14.0254C59.8598 14.0074 59.5327 13.9715 59.3267 13.9435C59.1207 13.9156 58.7714 13.8617 58.5493 13.8238C58.3272 13.7838 57.9455 13.708 57.7012 13.6521C57.4568 13.5962 57.2509 13.5463 57.2408 13.5423C57.2327 13.5383 57.2266 12.8836 57.2266 10.6398L57.2812 10.6478C57.3135 10.6518 57.5053 10.6957 57.7113 10.7456C57.9172 10.7935 58.2161 10.8574 58.3776 10.8873C58.5392 10.9153 58.7795 10.9532 58.9127 10.9692C59.046 10.9872 59.2823 11.0091 59.4378 11.0211C59.5932 11.0311 59.8295 11.0391 59.9628 11.0371C60.0961 11.0351 60.296 11.0251 60.407 11.0151C60.5181 11.0071 60.7039 10.9812 60.821 10.9592C60.9381 10.9373 61.1057 10.8973 61.1945 10.8694C61.2834 10.8394 61.4207 10.7855 61.4974 10.7456C61.5742 10.7077 61.6792 10.6478 61.7297 10.6139C61.7801 10.5799 61.869 10.5021 61.9275 10.4422C61.9942 10.3743 62.0669 10.2665 62.1153 10.1707C62.1598 10.0829 62.2102 9.94314 62.2264 9.8613C62.2506 9.7515 62.2567 9.65369 62.2466 9.492C62.2405 9.37023 62.2203 9.21852 62.2022 9.15264C62.184 9.08677 62.1396 8.97498 62.1032 8.90312C62.0669 8.83125 61.9982 8.72745 61.9498 8.66956C61.9013 8.61167 61.8104 8.52583 61.7498 8.47992C61.6873 8.43201 61.5742 8.36015 61.4974 8.32022C61.4187 8.2803 61.2612 8.21642 61.1441 8.17849C61.0269 8.14056 60.819 8.09066 60.6796 8.0667C60.5403 8.04275 60.3222 8.0168 60.195 8.00682C60.0678 7.99684 59.781 7.99085 59.5589 7.99484C59.3206 8.00083 59.0218 8.0188 58.832 8.04275C58.6543 8.06471 58.3918 8.10663 58.2464 8.13258C58.101 8.16053 57.8789 8.20444 57.7517 8.23239C57.6244 8.26233 57.5033 8.29028 57.4831 8.29427C57.4508 8.30425 57.4488 8.1206 57.4488 4.64121V0.978169Z" fill="#717171"/>
</svg>
