<svg width="83" height="32" viewBox="0 0 83 32" fill="none" xmlns="http://www.w3.org/2000/svg">
<mask id="mask0_14_63" style="mask-type:luminance" maskUnits="userSpaceOnUse" x="5" y="0" width="73" height="32">
<path d="M5.53333 0.228577H77.4667V31.8743H5.53333V0.228577Z" fill="white"/>
</mask>
<g mask="url(#mask0_14_63)">
<path d="M35.0998 10.1059C36.9519 10.1059 37.8157 11.0103 37.4538 12.6964C37.2585 13.6 36.6875 14.2583 35.949 14.6415C36.6868 15.0118 37.0633 15.7105 36.8405 16.7932C36.4362 18.6293 35.1136 19.4781 33.1354 19.4781H29.0408L31.0604 10.1067H35.0998V10.1059ZM33.0232 17.7524C33.7195 17.7524 34.1653 17.4377 34.3328 16.6842C34.4865 15.9033 34.1937 15.6153 33.4828 15.6153H32.3685L31.9089 17.7524H33.0232ZM33.831 13.8613C34.4158 13.8613 34.8062 13.4773 34.9453 12.848C35.0844 12.1897 34.8477 11.8332 34.2767 11.8332H33.2046L32.7727 13.8613H33.831ZM44.7654 10.1067C44.7931 10.2987 44.7793 10.6278 44.7093 10.9836C44.6117 11.3676 44.5003 11.7234 44.3612 11.9436H40.7676L40.3634 13.8476H43.3029C43.3168 14.0671 43.3306 14.3276 43.2468 14.7383C43.1492 15.1497 43.0378 15.4095 42.9125 15.6427H39.9737L39.5418 17.6434H43.2745C43.3029 17.8621 43.2891 18.205 43.2053 18.5478C43.1216 18.9173 43.024 19.2465 42.871 19.4796H36.6307L38.6503 10.1067H44.7654ZM52.5513 10.1067C52.5513 10.1067 52.5936 10.5181 52.4537 11.1208C52.3284 11.7097 52.1056 12.1486 52.1056 12.1486H49.863L48.3029 19.3562C48.3029 19.3562 47.7458 19.4796 47.0218 19.4796C46.2279 19.4796 45.796 19.3562 45.796 19.3562L47.3561 12.1486H45.0436C45.0436 12.1486 44.9883 11.7509 45.1274 11.1482C45.2035 10.7873 45.3251 10.4374 45.4894 10.1067H52.5513ZM55.6576 10.1067C56.7582 10.1067 57.2454 10.2301 57.2454 10.2301L58.1646 19.3699C58.1646 19.3699 57.705 19.4933 56.8412 19.4933C56.0619 19.4933 55.6576 19.3699 55.6576 19.3699L55.5039 17.6572H52.4537L51.5484 19.3699C51.5484 19.3699 51.075 19.4933 50.3088 19.4933C49.571 19.4933 49.1391 19.3699 49.1391 19.3699L54 10.2301C54 10.2301 54.5994 10.1067 55.6576 10.1067ZM55.1005 12.272C55.1005 12.272 54.8914 13.0111 54.4457 13.8613L53.3313 15.9444H55.3372L55.1558 13.8613C55.0728 12.9981 55.1558 12.272 55.1558 12.272H55.1005ZM62.1209 15.0812C61.898 13.7791 61.9257 12.6415 61.9257 12.6415H61.8565C61.8565 12.6415 61.7581 13.7653 61.4523 15.232L60.5608 19.3692C60.5608 19.3692 60.1704 19.4933 59.4326 19.4933C58.7217 19.4933 58.4159 19.3699 58.4159 19.3699L60.3794 10.2301C60.3794 10.2301 60.9504 10.1067 62.0786 10.1067C63.193 10.1067 63.6525 10.2301 63.6525 10.2301L64.4188 14.464C64.614 15.725 64.6001 17.1497 64.6001 17.1497H64.6555C64.6555 17.1497 64.823 15.7524 65.1435 14.3132L66.0204 10.2446C66.0204 10.2446 66.4945 10.1204 67.1485 10.1204C67.831 10.1204 68.1799 10.2438 68.1799 10.2438L66.2156 19.3829C66.2156 19.3829 65.686 19.5063 64.5579 19.5063C63.5134 19.5063 62.9424 19.3829 62.9424 19.3829L62.1201 15.0804L62.1209 15.0812ZM72.957 9.94211C75.5062 9.94211 76.7873 11.6137 76.0495 15.0126C75.3248 18.4107 73.4865 19.6434 70.9235 19.6434C68.3605 19.6434 67.1209 17.9993 67.8456 14.6149C68.5695 11.2579 70.4086 9.94211 72.957 9.94211ZM72.595 11.8057C71.662 11.8057 70.9934 12.3817 70.4639 14.7924C69.949 17.2046 70.3663 17.7661 71.3139 17.7661C72.2746 17.7661 72.9293 17.1909 73.445 14.7932C73.9738 12.3817 73.5564 11.8065 72.595 11.8065V11.8057Z" fill="#595959"/>
<path fill-rule="evenodd" clip-rule="evenodd" d="M24.4297 23.0819C24.4297 23.0819 23.0233 24.8495 18.552 26.5349C18.552 26.5349 16.0866 27.5634 14.638 27.2343C14.638 27.2343 12.8412 27.0697 11.9635 25.2335C11.9635 25.2335 10.8215 23.7265 10.5848 17.1627C10.5848 17.1627 10.5848 10.1745 11.8106 7.31125C11.8106 7.31125 12.6183 4.69334 15.3765 4.76191C15.3765 4.76191 18.7472 4.92648 22.9672 7.6122C22.9672 7.6122 26.6169 9.50325 25.5579 13.4354C25.5579 13.4354 25.182 14.4221 24.4158 15.5048C24.4158 15.5048 24.193 15.8065 24.4581 16.0937C24.4581 16.0937 26.1435 17.9025 26.0597 19.5741C26.0735 19.6015 26.2541 21.4514 24.4297 23.0819ZM12.3393 9.73868C12.1411 9.69906 11.5447 9.5802 11.4532 9.70134C11.4515 9.70378 11.45 9.70633 11.4486 9.70896C11.4486 9.70896 10.3058 16.1212 11.4486 22.3695C11.4486 22.3726 11.4517 22.3756 11.4578 22.3787L11.4486 22.3284C11.4625 22.3695 12.0473 22.3832 12.1026 22.3832C12.4231 22.3832 12.7297 22.3284 13.0225 22.2461C13.914 22.0137 14.7494 21.5612 15.5433 21.1231C15.8353 20.9585 16.1427 20.7802 16.4209 20.5745C17.3816 19.8758 18.3015 18.7109 17.7858 17.4918C17.6817 17.2342 17.5459 16.9904 17.3816 16.7657C17.3489 16.7245 17.3159 16.6837 17.2824 16.6431C17.1065 16.4282 16.9136 16.1935 16.8667 15.9299C16.8452 15.7318 16.9766 15.5345 17.0957 15.3547C17.1341 15.2975 17.171 15.2427 17.201 15.1893C17.563 14.5874 17.8004 14.0252 17.7159 13.3128C17.6191 12.4632 16.8106 11.7364 16.142 11.2983C15.5848 10.9417 14.9999 10.6682 14.4013 10.4213C13.7603 10.1471 13.0079 9.87277 12.3954 9.7501L12.3393 9.73868Z" fill="#595959"/>
<path fill-rule="evenodd" clip-rule="evenodd" d="M26.3663 17.6838C26.2717 17.4652 26.16 17.2542 26.032 17.053C25.8983 16.8381 25.7431 16.6225 25.5947 16.4168L25.5302 16.3269C25.5202 16.3131 25.5102 16.2994 25.5002 16.2857C25.438 16.2004 25.3673 16.1044 25.3081 15.9977C25.1959 15.8065 25.2382 15.5733 25.3773 15.3813C26.756 13.4629 26.6169 11.5451 26.2687 10.4351C25.823 8.99581 24.402 7.55734 22.619 6.48838C21.4632 5.80343 20.2097 5.24191 18.9278 4.78934C17.9949 4.46095 17.0619 4.18667 16.0866 4.0221C15.4457 3.91238 14.7632 3.87124 14.1223 3.98096C13.2031 4.06324 12.2279 4.25524 11.3226 4.43353C11.2188 4.45257 11.1128 4.47086 11.006 4.48915C10.0269 4.66057 8.95632 4.84724 8.20317 5.50248C7.42312 6.16 6.97738 7.11924 6.69841 8.07772C6.1835 9.87353 5.91836 11.7227 5.79309 13.5726C5.66783 15.4088 5.66783 17.2724 5.73776 19.1086C5.77926 20.1775 5.8907 21.2602 6.0859 22.3147C6.35027 23.6709 6.79601 25.0827 7.64599 26.2065C7.87192 26.5111 8.14413 26.7792 8.45294 27.0011C9.23682 27.555 10.2359 27.6564 11.1712 27.7509L11.2119 27.7547C11.6861 27.7973 12.1649 27.8667 12.646 27.9375C14.0293 28.1387 15.4295 28.3429 16.7829 27.9055C17.2563 27.7958 17.7436 27.6587 18.2177 27.5078C19.1199 27.2072 20.0036 26.8549 20.8645 26.4526C21.7779 26.0259 22.6497 25.5168 23.469 24.9318C24.2491 24.3703 24.9868 23.7128 25.5863 22.9585C26.1573 22.2324 26.4916 21.4377 26.7006 20.5608C26.7317 20.4578 26.7548 20.3526 26.7698 20.2461C26.8674 19.3829 26.7006 18.4785 26.3663 17.6838ZM24.611 23.3973C24.611 23.3973 23.0786 25.1924 18.4398 26.96C18.4398 26.96 15.9053 27.9733 14.4151 27.6312C14.4151 27.6312 12.5207 27.5215 11.6016 25.6175C11.6016 25.6175 10.418 24.0556 10.1806 17.2312C10.1806 17.2312 10.1806 9.98248 11.4486 7.00953C11.4486 7.00953 12.2556 4.35048 15.1252 4.43353C15.1252 4.43353 18.6358 4.54324 23.0233 7.32419C23.0233 7.32419 26.9373 9.3661 25.8361 13.4354C25.8361 13.4354 25.6132 14.2857 24.7924 15.4636C24.7924 15.4636 24.5695 15.7791 24.7225 15.9573C24.7225 15.9573 26.4778 17.9711 26.4078 19.7112C26.4071 19.7112 26.4063 19.7242 26.4063 19.7478C26.4009 20.0244 26.3679 21.8331 24.611 23.3973Z" fill="#595959"/>
</g>
</svg>
