<svg width="156" height="20" viewBox="0 0 156 20" fill="none" xmlns="http://www.w3.org/2000/svg">
<path d="M4.23215 3.10396H19.6795C22.1498 3.10396 23.1775 4.12578 22.7627 6.16941L22.5329 7.30126C22.3691 8.10823 21.8757 8.74752 21.0528 9.21913C21.806 9.56498 22.1007 10.1414 21.9368 10.9484L21.6018 12.599C21.1847 14.6531 19.693 15.6801 17.1264 15.6801H1.67903L4.23215 3.10396ZM5.82826 10.6497L5.40061 12.7562H17.72C18.2012 12.7562 18.4791 12.5728 18.5536 12.206L18.7865 11.0584C18.8419 10.7859 18.6556 10.6497 18.2279 10.6497H5.82826ZM6.76652 6.02792L6.36122 8.02439H18.7769C19.1939 8.02439 19.4365 7.85671 19.5046 7.52135L19.7088 6.51525C19.7748 6.19037 19.5672 6.02792 19.0859 6.02792H6.76652ZM41.1996 12.7562L40.606 15.6801H26.4419C23.8647 15.6801 22.7846 14.6531 23.2016 12.599L24.5069 6.16941C24.9217 4.12578 26.4178 3.10396 28.995 3.10396H43.111L42.5174 6.02792H28.4014C27.9202 6.02792 27.6381 6.23229 27.5551 6.64101L27.2966 7.91435H42.0382L41.4446 10.8383H26.703L26.4413 12.1274C26.3562 12.5466 26.5543 12.7562 27.0355 12.7562H41.1996ZM44.6477 3.10396H62.6295L62.0359 6.02792H54.6732L52.7137 15.6801H49.5857L51.5452 6.02792H44.0541L44.6477 3.10396Z" fill="#29A073"/>
<path d="M73.9336 3.10396H79.3394L81.0141 12.1588C81.083 12.5571 81.2564 12.7562 81.5345 12.7562H81.9997C82.3098 12.7562 82.5491 12.5518 82.7177 12.1431L86.3974 3.10396H89.8462L84.9399 14.1553C84.8268 14.3963 84.6816 14.6112 84.5042 14.7998C84.3269 14.9885 84.1335 15.1509 83.9241 15.2871C83.7167 15.4129 83.504 15.5125 83.286 15.5858C83.07 15.6487 82.8711 15.6801 82.6893 15.6801H80.2351C79.6897 15.6801 79.2318 15.5387 78.8615 15.2557C78.5019 14.9727 78.2759 14.6112 78.1835 14.171L76.5642 6.02792H75.5216L70.5961 14.171C70.3249 14.6112 69.9468 14.9727 69.4616 15.2557C68.9871 15.5387 68.4771 15.6801 67.9317 15.6801H65.4775C65.0176 15.6801 64.6325 15.5491 64.3221 15.2871C64.0245 15.0147 63.8658 14.6374 63.8461 14.1553L63.4268 3.10396H66.8756L66.8853 12.1431C66.8772 12.5518 67.0335 12.7562 67.3543 12.7562H67.8195C68.0869 12.7562 68.3412 12.5571 68.5824 12.1588L73.9336 3.10396ZM90.6556 3.10396H93.7836L91.2305 15.6801H88.1025L90.6556 3.10396ZM113.384 3.10396L112.791 6.02792H98.6266C98.1347 6.02792 97.8579 6.17989 97.7962 6.48381L97.5983 7.45847C97.5366 7.76239 97.7517 7.91435 98.2437 7.91435H108.959C111.526 7.91435 112.606 8.91521 112.199 10.9169L111.851 12.6304C111.439 14.6636 109.949 15.6801 107.382 15.6801H93.2183L93.8119 12.7562H107.976C108.457 12.7562 108.728 12.6095 108.787 12.316L108.995 11.2942C109.056 10.9903 108.847 10.8383 108.365 10.8383H97.6501C95.0728 10.8383 93.9661 9.94226 94.3299 8.15016L94.732 6.16941C95.1469 4.12578 96.643 3.10396 99.2202 3.10396H113.384ZM131.43 12.7562L130.836 15.6801H116.672C114.095 15.6801 113.015 14.6531 113.432 12.599L114.737 6.16941C115.152 4.12578 116.648 3.10396 119.225 3.10396H133.341L132.748 6.02792H118.632C118.15 6.02792 117.868 6.23229 117.785 6.64101L117.527 7.91435H132.268L131.675 10.8383H116.933L116.671 12.1274C116.586 12.5466 116.784 12.7562 117.266 12.7562H131.43ZM134.878 3.10396H150.325C152.795 3.10396 153.823 4.12578 153.408 6.16941L153.178 7.30126C152.747 9.42873 151.295 10.4925 148.825 10.4925H147.75L152.007 15.6801H147.676L143.708 10.6497H136.474L135.453 15.6801H132.325L134.878 3.10396ZM137.412 6.02792L137.007 8.02439H149.422C149.84 8.02439 150.082 7.85671 150.15 7.52135L150.354 6.51525C150.42 6.19037 150.213 6.02792 149.732 6.02792H137.412Z" fill="white"/>
</svg>
