<svg width="135" height="20" viewBox="0 0 135 20" fill="none" xmlns="http://www.w3.org/2000/svg">
<path d="M3.74833 3.11838H19.1957C21.666 3.11838 22.7187 4.14495 22.3537 6.19807L22.1515 7.33519C22.0074 8.14591 21.5296 8.78817 20.7182 9.26197C21.4799 9.60942 21.7886 10.1885 21.6445 10.9992L21.3497 12.6575C20.9828 14.7212 19.5161 15.753 16.9496 15.753H1.50218L3.74833 3.11838ZM5.52861 10.6992L5.15238 12.8155H17.4718C17.953 12.8155 18.2264 12.6312 18.2919 12.2627L18.4969 11.1098C18.5455 10.836 18.356 10.6992 17.9282 10.6992H5.52861ZM6.35407 6.05593L5.9975 8.06168H18.4132C18.8302 8.06168 19.0687 7.89322 19.1286 7.55629L19.3083 6.54552C19.3663 6.21913 19.1547 6.05593 18.6735 6.05593H6.35407ZM40.9514 12.8155L40.4292 15.753H26.2651C23.6878 15.753 22.5826 14.7212 22.9495 12.6575L24.0979 6.19807C24.4629 4.14495 25.934 3.11838 28.5112 3.11838H42.6272L42.105 6.05593H27.989C27.5078 6.05593 27.2306 6.26124 27.1576 6.67187L26.9302 7.95113H41.6718L41.1496 10.8887H26.408L26.1778 12.1837C26.1029 12.6049 26.3061 12.8155 26.7873 12.8155H40.9514ZM44.1639 3.11838H62.1457L61.6235 6.05593H54.2607L52.5368 15.753H49.4088L51.1328 6.05593H43.6416L44.1639 3.11838Z" fill="#29A073"/>
<path d="M73.4498 3.11838H78.8556L80.7513 12.2153C80.8299 12.6154 81.0082 12.8155 81.2863 12.8155H81.7514C82.0616 12.8155 82.2959 12.6101 82.4545 12.1995L85.9136 3.11838H89.3624L84.7258 14.2211C84.6186 14.4632 84.4786 14.6791 84.3059 14.8686C84.1332 15.0581 83.9438 15.2213 83.7376 15.3582C83.5334 15.4845 83.3231 15.5845 83.1068 15.6582C82.8924 15.7214 82.6943 15.753 82.5125 15.753H80.0582C79.5128 15.753 79.0515 15.6109 78.6743 15.3266C78.3078 15.0423 78.0729 14.6791 77.9698 14.2368L76.1518 6.05593H75.1091L70.3824 14.2368C70.122 14.6791 69.7526 15.0423 69.2743 15.3266C68.8067 15.6109 68.3002 15.753 67.7549 15.753H65.3006C64.8408 15.753 64.4524 15.6214 64.1356 15.3582C63.8314 15.0844 63.6635 14.7054 63.632 14.2211L62.943 3.11838H66.3918L66.6221 12.1995C66.6239 12.6101 66.7853 12.8155 67.1061 12.8155H67.5713C67.8386 12.8155 68.0881 12.6154 68.3196 12.2153L73.4498 3.11838ZM90.1718 3.11838H93.2998L91.0536 15.753H87.9257L90.1718 3.11838ZM112.901 3.11838L112.378 6.05593H98.2142C97.7223 6.05593 97.4492 6.2086 97.3949 6.51394L97.2208 7.49312C97.1665 7.79846 97.3853 7.95113 97.8773 7.95113H108.593C111.159 7.95113 112.264 8.95663 111.906 10.9676L111.6 12.6891C111.237 14.7317 109.772 15.753 107.206 15.753H93.0415L93.5637 12.8155H107.728C108.209 12.8155 108.476 12.668 108.528 12.3732L108.711 11.3467C108.765 11.0413 108.552 10.8887 108.07 10.8887H97.355C94.7778 10.8887 93.6492 9.98846 93.9693 8.18802L94.3231 6.19807C94.6881 4.14495 96.1592 3.11838 98.7364 3.11838H112.901ZM131.181 12.8155L130.659 15.753H116.495C113.918 15.753 112.813 14.7212 113.18 12.6575L114.328 6.19807C114.693 4.14495 116.164 3.11838 118.741 3.11838H132.857L132.335 6.05593H118.219C117.738 6.05593 117.461 6.26124 117.388 6.67187L117.16 7.95113H131.902L131.38 10.8887H116.638L116.408 12.1837C116.333 12.6049 116.536 12.8155 117.017 12.8155H131.181Z" fill="white"/>
</svg>
