<svg width="476" height="136" viewBox="0 0 476 136" fill="none" xmlns="http://www.w3.org/2000/svg">
<path d="M6.96297 108V52.9925L30.6371 76.6666V108H6.96297ZM98.8742 12.3288H102.356V108H78.6816V65.8044L54.5897 90.0355L30.4978 65.8044L6.82371 42.1303V12.3288H10.5837L54.7289 56.474L98.8742 12.3288ZM109.64 108L138.466 60.5125L148.214 76.6666L129.136 108H109.64ZM151.278 39.3451L192.917 108.139H173.42L169.382 101.455L141.53 55.3599L151.278 39.3451ZM222.014 91.2889L222.432 91.7067L238.725 108H202.796V40.5985H219.508V91.2889H222.014ZM229.674 91.2889H249.727V108H246.385L229.674 91.2889ZM311.492 55.917V56.0562C311.909 57.5881 312.049 59.12 312.049 60.6518C312.049 65.1081 310.656 69.2859 307.871 72.7674C307.453 73.3244 306.896 73.8815 306.339 74.4385C302.579 78.1985 297.705 80.2874 292.413 80.2874H271.524L256.763 65.5259V40.877H292.413C297.705 40.877 302.579 42.9659 306.339 46.7259C308.846 49.2325 310.656 52.4355 311.492 55.917ZM293.666 64.2726V63.994C294.502 63.0192 294.92 61.7659 294.92 60.5125C294.92 60.0948 294.92 59.677 294.781 59.2592C294.502 58.2844 293.945 57.3096 293.249 56.6133C292.135 55.4992 290.742 54.9422 289.21 54.9422H273.474V57.1703L282.665 66.3614H289.21C290.742 66.3614 292.135 65.8044 293.249 64.6903C293.388 64.5511 293.527 64.4118 293.666 64.2726ZM256.763 107.861V72.9066L273.474 89.6178V107.861H256.763ZM319.018 108V67.754L335.729 84.4652V108H319.018ZM361.075 40.4592L377.786 40.5985V108H361.075V82.6548H341.439L319.018 60.234V40.4592H335.729V53.2711L348.402 65.9437H361.075V40.4592ZM384.813 108L413.64 60.5125L423.388 76.6666L404.309 108H384.813ZM426.451 39.3451L468.09 108.139H448.594L444.555 101.455L416.703 55.3599L426.451 39.3451Z" fill="#673DE6"/>
<rect x="147" y="91" width="8" height="8" fill="#673DE6"/>
<rect x="422" y="90" width="8" height="8" fill="#673DE6"/>
</svg>
