<svg width="18" height="18" viewBox="0 0 18 18" fill="none" xmlns="http://www.w3.org/2000/svg">
<path d="M8.99173 13.2115C9.20588 13.2115 9.38676 13.1376 9.53436 12.9897C9.68194 12.8419 9.75574 12.6609 9.75574 12.4467C9.75574 12.2326 9.68181 12.0517 9.53394 11.9041C9.38608 11.7565 9.20508 11.6827 8.99093 11.6827C8.77677 11.6827 8.59591 11.7566 8.44832 11.9045C8.30072 12.0524 8.22692 12.2334 8.22692 12.4475C8.22692 12.6617 8.30085 12.8425 8.44871 12.9901C8.59658 13.1377 8.77758 13.2115 8.99173 13.2115ZM8.46056 10.526H9.51632C9.52593 10.1567 9.58002 9.86178 9.67858 9.6411C9.77713 9.42044 10.0163 9.12789 10.3961 8.76347C10.7259 8.43366 10.9786 8.12909 11.1541 7.84976C11.3295 7.57044 11.4173 7.24057 11.4173 6.86016C11.4173 6.21462 11.1853 5.71036 10.7214 5.34737C10.2574 4.98439 9.70864 4.80291 9.07498 4.80291C8.44903 4.80291 7.93101 4.96998 7.52091 5.30411C7.11082 5.63824 6.81827 6.03174 6.64327 6.48461L7.60671 6.87114C7.69806 6.62211 7.85431 6.37956 8.07546 6.14351C8.29662 5.90745 8.62499 5.78942 9.06056 5.78942C9.50384 5.78942 9.83148 5.91082 10.0435 6.15362C10.2555 6.39641 10.3615 6.66348 10.3615 6.95483C10.3615 7.20963 10.2889 7.4428 10.1437 7.65433C9.99854 7.86587 9.81345 8.0702 9.58845 8.26733C9.09615 8.71155 8.78509 9.06588 8.65528 9.3303C8.52547 9.59473 8.46056 9.99328 8.46056 10.526ZM9.00124 16.125C8.01579 16.125 7.08951 15.938 6.22241 15.564C5.3553 15.19 4.60104 14.6824 3.95963 14.0413C3.3182 13.4002 2.81041 12.6462 2.43624 11.7795C2.06208 10.9128 1.875 9.98671 1.875 9.00126C1.875 8.01581 2.062 7.08953 2.436 6.22243C2.81 5.35532 3.31756 4.60106 3.95869 3.95965C4.59983 3.31822 5.35376 2.81043 6.22048 2.43626C7.08719 2.0621 8.01328 1.87502 8.99873 1.87502C9.98418 1.87502 10.9105 2.06202 11.7776 2.43602C12.6447 2.81002 13.3989 3.31758 14.0403 3.95871C14.6818 4.59984 15.1896 5.35378 15.5637 6.2205C15.9379 7.08721 16.125 8.0133 16.125 8.99874C16.125 9.98419 15.938 10.9105 15.564 11.7776C15.19 12.6447 14.6824 13.3989 14.0413 14.0404C13.4001 14.6818 12.6462 15.1896 11.7795 15.5637C10.9128 15.9379 9.98669 16.125 9.00124 16.125ZM8.99998 15C10.675 15 12.0937 14.4188 13.2562 13.2563C14.4187 12.0938 15 10.675 15 9C15 7.325 14.4187 5.90625 13.2562 4.74375C12.0937 3.58125 10.675 3 8.99998 3C7.32498 3 5.90623 3.58125 4.74373 4.74375C3.58123 5.90625 2.99998 7.325 2.99998 9C2.99998 10.675 3.58123 12.0938 4.74373 13.2563C5.90623 14.4188 7.32498 15 8.99998 15Z" fill="#989898"/>
</svg>
