<svg width="18" height="18" viewBox="0 0 18 18" fill="none" xmlns="http://www.w3.org/2000/svg">
<path d="M4.68752 10.3125H10.3125V9.18753H4.68752V10.3125ZM4.68752 8.06249H13.3125V6.93753H4.68752V8.06249ZM4.68752 5.81249H13.3125V4.68753H4.68752V5.81249ZM1.87502 15.7788V3.23081C1.87502 2.85196 2.00627 2.53128 2.26877 2.26878C2.53127 2.00628 2.85194 1.87503 3.23079 1.87503H14.7692C15.1481 1.87503 15.4687 2.00628 15.7312 2.26878C15.9937 2.53128 16.125 2.85196 16.125 3.23081V11.7692C16.125 12.1481 15.9937 12.4687 15.7312 12.7312C15.4687 12.9937 15.1481 13.125 14.7692 13.125H4.52885L1.87502 15.7788ZM4.05002 12H14.7692C14.8269 12 14.8798 11.976 14.9279 11.9279C14.976 11.8798 15 11.8269 15 11.7692V3.23081C15 3.17311 14.976 3.12021 14.9279 3.07212C14.8798 3.02405 14.8269 3.00001 14.7692 3.00001H3.23079C3.17309 3.00001 3.1202 3.02405 3.07211 3.07212C3.02403 3.12021 3 3.17311 3 3.23081V13.0385L4.05002 12Z" fill="#989898"/>
</svg>
