<svg width="16" height="17" viewBox="0 0 16 17" fill="none" xmlns="http://www.w3.org/2000/svg">
<path d="M6.03523 16.1769L5.71103 13.5833C5.48289 13.5069 5.24902 13.4 5.00942 13.2624C4.76982 13.1249 4.55559 12.9775 4.36675 12.8203L1.96477 13.8355L0 10.4298L2.07778 8.85963C2.05812 8.73301 2.0442 8.60585 2.03602 8.47814C2.02783 8.35042 2.02373 8.22326 2.02373 8.09664C2.02373 7.97547 2.02783 7.85239 2.03602 7.7274C2.0442 7.60241 2.05812 7.46569 2.07778 7.31725L0 5.74704L1.96477 2.35779L4.35855 3.36476C4.56377 3.20211 4.78291 3.05338 5.01595 2.91857C5.24901 2.78375 5.47797 2.67541 5.70283 2.59354L6.03523 0H9.96477L10.289 2.60174C10.5444 2.69452 10.7755 2.80285 10.9824 2.92675C11.1893 3.05064 11.398 3.19665 11.6087 3.36476L14.0352 2.35779L16 5.74704L13.8895 7.34179C13.9201 7.47934 13.9367 7.60787 13.9394 7.7274C13.9421 7.84692 13.9435 7.96727 13.9435 8.08844C13.9435 8.20415 13.9408 8.32177 13.9353 8.44129C13.9299 8.56081 13.9102 8.69754 13.8764 8.85146L15.9705 10.4298L14.0057 13.8355L11.6087 12.8121C11.398 12.9802 11.183 13.129 10.9636 13.2583C10.7442 13.3877 10.5193 13.4933 10.289 13.5751L9.96477 16.1769H6.03523ZM7.14858 14.8998H8.82194L9.12813 12.619C9.56256 12.5054 9.95961 12.3442 10.3193 12.1351C10.6789 11.9261 11.0258 11.6573 11.3598 11.3287L13.4753 12.2178L14.3136 10.7704L12.4667 9.37866C12.5376 9.15817 12.5859 8.94204 12.6116 8.73028C12.6372 8.51852 12.65 8.30457 12.65 8.08844C12.65 7.86686 12.6372 7.65291 12.6116 7.4466C12.5859 7.2403 12.5376 7.02963 12.4667 6.81459L14.33 5.40648L13.4916 3.95907L11.3516 4.86125C11.0667 4.5567 10.7254 4.28763 10.3275 4.05404C9.92959 3.82044 9.52708 3.65507 9.11993 3.55792L8.85142 1.2771H7.16167L6.88007 3.54973C6.44562 3.65234 6.04447 3.80952 5.67661 4.02129C5.30876 4.23305 4.95782 4.50594 4.62381 4.83997L2.50836 3.95907L1.67003 5.40648L3.50877 6.77694C3.43782 6.97887 3.38816 7.18899 3.35978 7.40731C3.3314 7.62563 3.31721 7.8554 3.31721 8.09664C3.31721 8.31822 3.3314 8.53544 3.35978 8.74829C3.38816 8.96114 3.43509 9.17127 3.50058 9.37866L1.67003 10.7704L2.50836 12.2178L4.61562 11.3238C4.93872 11.6557 5.28419 11.9275 5.65205 12.1392C6.0199 12.351 6.42651 12.5136 6.87187 12.6272L7.14858 14.8998ZM8.00981 10.6427C8.71823 10.6427 9.32104 10.3941 9.81824 9.89687C10.3154 9.39966 10.564 8.79685 10.564 8.08844C10.564 7.38003 10.3154 6.77722 9.81824 6.28001C9.32104 5.78281 8.71823 5.53421 8.00981 5.53421C7.29268 5.53421 6.68769 5.78281 6.19485 6.28001C5.70202 6.77722 5.4556 7.38003 5.4556 8.08844C5.4556 8.79685 5.70202 9.39966 6.19485 9.89687C6.68769 10.3941 7.29268 10.6427 8.00981 10.6427Z" fill="#989898"/>
</svg>
